<svg height="164.2715mm" viewBox="0 0 270.42599 164.27147" width="270.426mm" xmlns="http://www.w3.org/2000/svg" xmlns:xlink="http://www.w3.org/1999/xlink">
  <defs>
    <path id="animatePath1" d="m 225.23623,53.752522 -1e-5,35.50066 v 24.573158 c 0,1.95182 -0.86765,2.81946 -2.81947,2.81946 H 154.7409 c -1.95182,0 -2.81947,0.86764 -2.81947,2.81946 v 4.12527 8.52352 h -21.39352 v 8.52353 4.72775 c 0,1.95182 -0.86766,2.81946 -2.81948,2.81946 h -11.50914 c -1.95182,0 -2.81948,0.86764 -2.81948,2.81946 v 8.6384 -8.6384 c 0,-1.95182 0.86766,-2.81946 2.81948,-2.81946 h 11.50914 c 1.95182,0 2.81948,-0.86764 2.81948,-2.81946 v -4.72775 -8.52353 h -7.13125 v -8.52352 -4.12528 c 0,-1.95182 -0.86765,-2.81946 -2.81947,-2.81946 l -67.6759,-1e-5 c -1.95194,0 -2.81947,-0.86753 -2.81947,-2.81946 l 10e-6,-24.573147 1e-5,-35.500662"/>
	<path id="animatePath2" d="m 50.08184,53.752511 -6e-6,35.500662 -8e-6,24.573147 c 0,1.95193 0.867528,2.81946 2.819468,2.81946 l 67.675896,1e-5 c 1.95182,0 2.81947,0.86764 2.81947,2.81946 v 4.12528 8.52352 h 7.13125 v 8.52353 4.72775 c 0,1.95182 -0.86766,2.81946 -2.81948,2.81946 h -11.50914 c -1.95182,0 -2.81948,0.86764 -2.81948,2.81946 v 8.14364 -8.14365 c 0,-1.95182 0.86766,-2.81946 2.81948,-2.81946 h 11.50914 c 1.95182,0 2.81948,-0.86764 2.81948,-2.81946 v -4.72775 -8.87977 h 7.13113 v -8.87976 l 1e-5,-13.17697"/>
	<path id="animatePath3" d="m 225.23623,53.75252 -1e-5,35.50066 v 24.57316 c 0,1.95182 -0.86765,2.81946 -2.81947,2.81946 H 154.7409 c -1.95182,0 -2.81947,0.86764 -2.81947,2.81946 v 4.12527 8.52352 h -21.39352 v 8.52353 4.72775 c 0,1.95182 -0.86766,2.81946 -2.81948,2.81946 h -11.50914 c -1.95182,0 -2.81948,0.86764 -2.81948,2.81946 v 9.06539 -9.0654 c 0,-1.95182 0.86766,-2.81946 2.81948,-2.81946 h 11.50914 c 1.95182,0 2.81948,-0.86764 2.81948,-2.81946 v -4.72775 -8.87977 h 7.13113 v -8.87976 l 1e-5,-13.17697"/>
	<path id="animatePath4" d="m 161.93829,155.73199 v -4.72775 c 0,-1.95182 -0.86766,-2.81946 -2.81948,-2.81946 h -11.50914 c -1.95182,0 -2.81948,-0.86764 -2.81948,-2.81946 v -4.72775 -8.87977 h -7.13113 v -8.87976 l -1e-5,-13.17697"/>
	<path id="animatePath5" d="m 161.93829,155.73199 v -4.72775 c 0,-1.95182 -0.86766,-2.81946 -2.81948,-2.81946 h -11.50914 c -1.95182,0 -2.81948,-0.86764 -2.81948,-2.81946 v -4.72775 -8.52353 h 7.13125 v -8.52352 -4.12528 c 0,-1.95182 0.86765,-2.81946 2.81947,-2.81946 l 67.6759,-1e-5 c 1.95194,0 2.81946,-0.86753 2.81946,-2.81946 l 0,-24.57315 -1e-5,-35.50066"/>
	<path id="animatePath6" d="m 161.93826,155.732 v -4.72775 c 0,-1.95182 -0.86766,-2.81946 -2.81948,-2.81946 h -11.50914 c -1.95182,0 -2.81948,-0.86764 -2.81948,-2.81946 v -4.72775 -8.52353 h -21.39352 v -8.52352 -4.12527 c 0,-1.95182 -0.86765,-2.81946 -2.81947,-2.81946 H 52.901321 c -1.95182,0 -2.81947,-0.86764 -2.81947,-2.81946 V 89.25318 l -1e-5,-35.500658"/>
  </defs>
  <g transform="translate(-2.446 -19.9705)">
    <g stroke-width=".355">
      <path d="m137.65904 122.87804.00001-13.17697" fill="none" stroke="#002f77"/>
      <path d="m50.081839 53.752512v15.052775" fill="none" stroke="#cd2393"/>
      <path d="m225.23623 53.752512v15.052775" fill="#008000" stroke="#008000"/>
      <path d="m151.92143 123.59053v-4.12527c0-1.95182.86765-2.81946 2.81947-2.81946h67.67585c1.95182 0 2.81947-.86764 2.81947-2.81946v-4.12527" fill="none" stroke="#002f77"/>
      <path d="m113.37981 155.732v-4.72775c0-1.95182.86766-2.81946 2.81948-2.81946h11.50914c1.95182 0 2.81948-.86764 2.81948-2.81946 0-1.57592 0-4.72775 0-4.72775" fill="none" stroke="#002f77"/>
      <path d="m144.78998 140.63759v4.72774c0 1.95182.86766 2.81946 2.81948 2.81946h11.50932c1.95182 0 2.81948.86764 2.81948 2.81946v4.72775" fill="none" stroke="#002f77"/>
      <path d="m50.081826 109.70106-.000001 4.12526c0 1.95193.867528 2.81946 2.819468 2.81946l67.675897.00001c1.95182 0 2.81947.86764 2.81947 2.81946v4.12528" fill="none" stroke="#002f77" stroke-linejoin="round" stroke-miterlimit="0"/>
    </g>
    <circle r="1.5" fill="#008000">
      <animateMotion dur="16.2s" begin="0s" repeatCount="indefinite">
        <mpath xlink:href="#animatePath1"/>
      </animateMotion>
    </circle>
    <circle r="1.5" fill="#008000">
      <animateMotion dur="16.2s" begin="1s" repeatCount="indefinite">
        <mpath xlink:href="#animatePath1"/>
      </animateMotion>
    </circle>
    <circle r="1.5" fill="#008000">
      <animateMotion dur="16.2s" begin="2s" repeatCount="indefinite">
        <mpath xlink:href="#animatePath1"/>
      </animateMotion>
    </circle>
    <circle r="1.5" fill="#CD2393">
      <animateMotion dur="10.2s" begin="0s" repeatCount="indefinite">
        <mpath xlink:href="#animatePath2"/>
      </animateMotion>
    </circle>
    <circle r="1.5" fill="#CD2393">
      <animateMotion dur="10.2s" begin="1s" repeatCount="indefinite">
        <mpath xlink:href="#animatePath2"/>
      </animateMotion>
    </circle>
    <circle r="1.5" fill="#CD2393">
      <animateMotion dur="10.2s" begin="2s" repeatCount="indefinite">
        <mpath xlink:href="#animatePath2"/>
      </animateMotion>
    </circle>
    <circle r="1.5" fill="#FF911E">
      <animateMotion dur="10.8s" begin="0s" repeatCount="indefinite" keyPoints="1;0" keyTimes="0;1">
        <mpath xlink:href="#animatePath3"/>
      </animateMotion>
    </circle>
    <circle r="1.5" fill="#FF911E">
      <animateMotion dur="10.8s" begin="1s" repeatCount="indefinite" keyPoints="1;0" keyTimes="0;1">
        <mpath xlink:href="#animatePath3"/>
      </animateMotion>
    </circle>
    <circle r="1.5" fill="#FF911E">
      <animateMotion dur="10.8s" begin="2s" repeatCount="indefinite" keyPoints="1;0" keyTimes="0;1">
        <mpath xlink:href="#animatePath3"/>
      </animateMotion>
    </circle>
    <circle r="1.5" fill="#002F77">
      <animateMotion dur="2.6s" repeatCount="indefinite">
        <mpath xlink:href="#animatePath4"/>
      </animateMotion>
    </circle>
    <circle r="1.5" fill="#002F77">
      <animateMotion dur="7.4s" begin="1s" repeatCount="indefinite">
        <mpath xlink:href="#animatePath5"/>
      </animateMotion>
    </circle>
    <circle r="1.5" fill="#002F77">
      <animateMotion dur="8.2s" begin="2s" repeatCount="indefinite">
        <mpath xlink:href="#animatePath6"/>
      </animateMotion>
    </circle>
    <rect fill="#4e94ff" height="24.7795" rx="1.7" stroke="#002f77" stroke-width=".354542" width="43.9998" x="91.3799" y="155.9093"/>
    <text font-family="sans-serif" font-size="4.93889" letter-spacing="0" stroke-width=".264583" word-spacing="0" x="113.4425" y="165.3075"><tspan fill="#fff" font-size="4.93889" font-weight="bold" stroke-width=".264583" text-anchor="middle" x="113.4425" y="165.3075">data point</tspan><tspan fill="#fff" font-size="4.93889" font-weight="bold" stroke-width=".264583" text-anchor="middle" x="113.4425" y="173.2098">bridge</tspan></text>
    <rect fill="#4e94ff" height="24.7795" rx="1.7" stroke="#002f77" stroke-width=".354542" width="43.9998" x="139.9384" y="155.9093"/>
    <text font-family="sans-serif" font-size="4.93889" letter-spacing="0" stroke-width=".264583" word-spacing="0" x="162.001" y="165.3075"><tspan fill="#fff" font-size="4.93889" font-weight="bold" stroke-width=".264583" text-anchor="middle" x="162.001" y="165.3075">sync</tspan><tspan fill="#fff" font-size="4.93889" font-weight="bold" stroke-width=".264583" text-anchor="middle" x="162.001" y="173.2098">client</tspan></text>
    <ellipse cx="137.659" cy="131.8433" fill="#4e94ff" rx="36.1002" ry="8.7879" stroke="#002f77" stroke-width=".354543"/>
    <text font-family="sans-serif" font-size="4.93889" letter-spacing="0" stroke-width=".264583" word-spacing="0" x="137.4106" y="133.2456"><tspan fill="#fff" font-size="4.93889" font-weight="bold" stroke-width=".264583" text-anchor="middle" x="137.4106" y="133.2456">MQTT broker</tspan></text>
    <rect fill="#fff" height="82.2447" rx="1.7" stroke="#000" stroke-width=".354542" width="51.8233" x="111.7474" y="27.2791"/>
    <rect fill="#4e94ff" height="24.3795" rx=".5292" stroke="#002f77" stroke-width=".2" width="47.5836" x="113.9716" y="83.2504"/>
    <rect fill="#ff911e" height="50.29" rx=".5292" stroke="#000" stroke-width=".2" width="47.7923" x="113.7629" y="29.173"/>
    <text font-family="sans-serif" font-size="4.93889" letter-spacing="0" stroke-width=".264583" word-spacing="0" x="137.7471" y="51.2544"><tspan fill="#fff" font-size="4.93889" font-weight="bold" stroke-width=".264583" text-anchor="middle" x="137.7471" y="51.2544">user</tspan><tspan fill="#fff" font-size="4.93889" font-weight="bold" stroke-width=".264583" text-anchor="middle" x="137.7471" y="59.1566">application</tspan></text>
    <text font-family="sans-serif" font-size="4.93889" letter-spacing="0" stroke-width=".264583" word-spacing="0" x="137.8104" y="92.4487"><tspan fill="#fff" font-size="4.93889" font-weight="bold" stroke-width=".264583" text-anchor="middle" x="137.8104" y="92.4487">services,</tspan><tspan fill="#fff" font-size="4.93889" font-weight="bold" stroke-width=".264583" text-anchor="middle" x="137.8104" y="100.3509">MQTT client, ...</tspan></text>
    <text style="font-size:4.93889;font-family:sans-serif;letter-spacing:0;word-spacing:0;fill:#ff911e;stroke-width:.264583" x="137.4685" y="23.7229"><tspan fill="#ff911e" font-size="4.93889" stroke-width=".264583" text-anchor="middle" x="137.4685" y="23.7229">Lablink client</tspan></text>
    <rect fill="#fff" height="40.5412" rx="1.7" stroke="#000" stroke-width=".354542" width="51.646" x="24.2589" y="68.9826"/>
    <rect fill="#cd2393" height="8.5866" rx=".5292" stroke="#000" stroke-width=".2" width="47.6126" x="26.2756" y="70.8765"/>
    <rect fill="#4e94ff" height="24.3795" rx=".5292" stroke="#002f77" stroke-width=".2" width="47.6126" x="26.2756" y="83.2504"/>
    <text font-family="sans-serif" font-size="4.93889" letter-spacing="0" stroke-width=".264583" word-spacing="0" x="49.9456" y="76.8663"><tspan fill="#fff" font-size="4.93889" font-weight="bold" stroke-width=".264583" text-anchor="middle" x="49.9456" y="76.8663">connector</tspan></text>
    <text font-family="sans-serif" font-size="4.93889" letter-spacing="0" stroke-width=".264583" word-spacing="0" x="50.1535" y="92.4487"><tspan fill="#fff" font-size="4.93889" font-weight="bold" stroke-width=".264583" text-anchor="middle" x="50.1535" y="92.4487">services,</tspan><tspan fill="#fff" font-size="4.93889" font-weight="bold" stroke-width=".264583" text-anchor="middle" x="50.1535" y="100.3509">MQTT client, ...</tspan></text>
    <path d="m24.2588 27.4564h51.646v26.1189h-51.646z" fill="#fff" stroke="#cd2393" stroke-width=".354542"/>
    <text style="font-size:4.93889;font-family:sans-serif;letter-spacing:0;word-spacing:0;fill:#cd2393;stroke-width:.264583" x="50.0818" y="33.9797"><tspan fill="#cd2393" font-size="4.93889" font-weight="bold" stroke-width=".264583" text-anchor="middle" x="50.0818" y="33.9797">external</tspan><tspan fill="#cd2393" font-size="4.93889" font-weight="bold" stroke-width=".264583" text-anchor="middle" x="50.0818" y="41.882">application</tspan><tspan fill="#cd2393" font-size="4.93889" stroke-width=".264583" text-anchor="middle" x="50.0818" y="49.7842">(e.g., simulator)</tspan></text>
    <text style="font-size:4.93889;font-family:sans-serif;letter-spacing:0;word-spacing:0;fill:#cd2393;stroke-width:.264583" x="49.8913" y="23.7229"><tspan fill="#cd2393" font-size="4.93889" stroke-width=".264583" text-anchor="middle" x="49.8913" y="23.7229">Lablink client</tspan></text>
    <text style="font-size:4.23333;font-family:sans-serif;letter-spacing:0;word-spacing:0;fill:#cd2393;stroke-width:.264583" x="29.4595" y="62.8649"><tspan fill="#cd2393" font-size="4.23333" stroke-width=".264583" text-anchor="middle" x="29.4595" y="62.8649">Software API</tspan></text>
    <rect fill="#fff" height="40.5412" rx="1.7" stroke="#000" stroke-width=".354542" width="51.646" x="199.4132" y="68.9826"/>
    <rect fill="#4e94ff" height="24.3795" rx=".5292" stroke="#002f77" stroke-width=".2" width="47.6126" x="201.43" y="83.2504"/>
    <rect fill="#008000" height="8.5866" rx=".5292" stroke="#000" stroke-width=".2" width="47.6126" x="201.43" y="70.8765"/>
    <text font-family="sans-serif" font-size="4.93889" letter-spacing="0" stroke-width=".264583" word-spacing="0" x="225.1" y="76.8663"><tspan fill="#fff" font-size="4.93889" font-weight="bold" stroke-width=".264583" text-anchor="middle" x="225.1" y="76.8663">connector</tspan></text>
    <text style="font-size:4.93889;font-family:sans-serif;letter-spacing:0;word-spacing:0;fill:#fff;stroke-width:.264583" x="225.3079" y="92.4487"><tspan fill="#fff" font-size="4.93889" font-weight="bold" stroke-width=".264583" text-anchor="middle" x="225.3079" y="92.4487">services,</tspan><tspan fill="#fff" font-size="4.93889" font-weight="bold" stroke-width=".264583" text-anchor="middle" x="225.3079" y="100.3509">MQTT client, ...</tspan></text>
    <path d="m199.4132 27.4564h51.646v26.1189h-51.646z" fill="#fff" stroke="#008000" stroke-width=".354542"/>
    <text style="font-size:4.93889;font-family:sans-serif;letter-spacing:0;word-spacing:0;fill:#008000;stroke-width:.264583" x="225.2362" y="33.9797"><tspan fill="#008000" font-size="4.93889" font-weight="bold" stroke-width=".264583" text-anchor="middle" x="225.2362" y="33.9797">hardware</tspan><tspan fill="#008000" font-size="4.93889" font-weight="bold" stroke-width=".264583" text-anchor="middle" x="225.2362" y="41.882">component</tspan><tspan fill="#008000" font-size="4.93889" stroke-width=".264583" text-anchor="middle" x="225.2362" y="49.7842">(e.g., amplifier)</tspan></text>
    <text style="font-size:4.93889;font-family:sans-serif;letter-spacing:0;word-spacing:0;fill:#008000;stroke-width:.264583" x="225.0457" y="23.7229"><tspan fill="#008000" font-size="4.93889" stroke-width=".264583" text-anchor="middle" x="225.0457" y="23.7229">Lablink client</tspan></text>
    <text style="font-size:4.23333;font-family:sans-serif;letter-spacing:0;word-spacing:0;fill:#008000;stroke-width:.264583" x="252.4959" y="62.8649"><tspan fill="#008000" font-size="4.23333" stroke-width=".264583" text-anchor="middle" x="252.4959" y="62.8649">Hardware Interface</tspan></text>
    <rect fill="none" height="102.7058" rx=".5292" stroke="#002f77" stroke-dasharray="1.42 1.42" stroke-width=".355" width="255.1919" x="10.063" y="81.3567"/>
    <path d="m44.85823157333 143.00167591368h2.81448130171m-2.81448130171-7.8337382168h2.81448130171m-2.81448130171 0c-.49787068105-.94250076023-1.47569993501-1.5899474587-2.61976148407-1.5899474587h-12.02642735202c-1.6477817562 0-2.97331080673 1.3272145072-2.97331080673 2.9749962634v5.06535911224c0 1.6477817562 1.32552905053 2.97331080673 2.97331080673 2.97331080673h12.02642735202c1.14462336795 0 2.12212214021-.6467526869 2.61976148407-1.58998050687m2.81448130171-7.8337382168c-.58584490959-2.28303367994-2.64408493719-3.96383055797-5.11489831907-3.96383055797h-12.66343082877c-2.9293897888 0-5.2873767183 2.35970543434-5.2873767183 5.28909522314v5.1849273913c0 2.9293897888 2.3579869295 5.2873767183 5.2873767183 5.2873767183h12.66343082877c2.47137520077 0 4.52961522837-1.67997067378 5.11489831907-3.96383055797m-17.5703900622-1.58588253379v-4.66075036693c0-.1830868618.0836118701-.3304817.1873831239-.3304817h4.72813558556" fill="none" stroke="#4e94ff" stroke-linecap="round" stroke-width="1.050931806"/>
    <path d="m41.74714294587 141.85057510441h-2.81448130171m2.81448130171 7.8337382168h-2.81448130171m2.81448130171 0c.49787068105.94250076023 1.47569993501 1.5899474587 2.61976148407 1.5899474587h12.02642735202c1.6477817562 0 2.97331080673-1.3272145072 2.97331080673-2.9749962634v-5.06535911224c0-1.6477817562-1.32552905053-2.97331080673-2.97331080673-2.97331080673h-12.02642735202c-1.14462336795 0-2.12212214021.64671963873-2.61976148407 1.58998050687m-2.81448130171 7.8337382168c.58584490959 2.28303367994 2.64408493719 3.9637975098 5.11489831907 3.9637975098h12.66343082877c2.9293897888 0 5.2873767183-2.35967238617 5.2873767183-5.28906217497v-5.1849273913c0-2.9293897888-2.3579869295-5.2873767183-5.2873767183-5.2873767183h-12.66343082877c-2.47137520077 0-4.52961522837 1.67997067378-5.11489831907 3.96383055797m17.5703900622 1.58588253379v4.66075036693c0 .1830868618-.0836118701.3304817-.1873831239.3304817h-4.72813558556" fill="none" opacity=".997" stroke="#4e94ff" stroke-linecap="round" stroke-width="1.050931806"/>
    <path d="m33.56130952589 149.86640873791c-.2746302927 0-.49697838046.2224141841-.49697838046.49697838046v.44231670728c0 .2746302927.2224141841.49697838046.49697838046.49697838046h.44400216395c.2746302927 0 .49529292379-.2224141841.49529292379-.49697838046v-.44231670728c0-.2746302927-.2207617756-.49697838046-.49529292379-.49697838046zm-1.4362734682 1.4362734682c-.2746302927 0-.49529292379.2207617756-.49529292379.49529292379v.44400216395c0 .2746302927.2207617756.49529292379.49529292379.49529292379h.44400216395c.2746302927 0 .49529292379-.2207617756.49529292379-.49529292379v-.44400216395c0-.2746302927-.2207617756-.49529292379-.49529292379-.49529292379zm2.87082843156 0c-.2746302927 0-.49525987562.2207617756-.49525987562.49529292379v.44400216395c0 .2746302927.2207617756.49529292379.49525987562.49529292379h.44403521212c.2746302927 0 .49525987562-.2207617756.49525987562-.49529292379v-.44400216395c0-.2746302927-.2207617756-.49529292379-.49525987562-.49529292379zm-1.43455496336 1.43458801153c-.2746302927 0-.49697838046.2207617756-.49697838046.49525987562v.44403521212c0 .2746302927.2224141841.49697838046.49697838046.49697838046h.44400216395c.2746302927-.00003304817.49529292379-.2224141841.49529292379-.49697838046v-.44403521212c0-.2746302927-.2207617756-.49525987562-.49529292379-.49525987562z" fill="#4e94ff"/>
    <path d="m51.44367431289 130.67864123591c-.2746302927 0-.49697838046.2224141841-.49697838046.49697838046v.44231670728c0 .2746302927.2224141841.49697838046.49697838046.49697838046h.44400216395c.2746302927 0 .49529292379-.2224141841.49529292379-.49697838046v-.44231670728c0-.2746302927-.2207617756-.49697838046-.49529292379-.49697838046zm-1.4362734682 1.4362734682c-.2746302927 0-.49529292379.2207617756-.49529292379.49529292379v.44400216395c0 .2746302927.2207617756.49529292379.49529292379.49529292379h.44400216395c.2746302927 0 .49529292379-.2207617756.49529292379-.49529292379v-.44400216395c0-.2746302927-.2207617756-.49529292379-.49529292379-.49529292379zm2.87082843156 0c-.2746302927 0-.49525987562.2207617756-.49525987562.49529292379v.44400216395c0 .2746302927.2207617756.49529292379.49525987562.49529292379h.44403521212c.2746302927 0 .49525987562-.2207617756.49525987562-.49529292379v-.44400216395c0-.2746302927-.2207617756-.49529292379-.49525987562-.49529292379zm-1.43455496336 1.43458801153c-.2746302927 0-.49697838046.2207617756-.49697838046.49525987562v.44403521212c0 .2746302927.2224141841.49697838046.49697838046.49697838046h.44400216395c.2746302927-.00003304817.49529292379-.2224141841.49529292379-.49697838046v-.44403521212c0-.2746302927-.2207617756-.49525987562-.49529292379-.49525987562z" fill="#4e94ff"/>
    <path d="m29.20735523552 164.71812414323h-5.12554974426v-8.10185802001h1.07734390346v7.14422119792h4.0482058408z"/>
    <path d="m34.9259874386 164.71812414323h-1.01749036278v-.64747974664q-.13602626772.092534876-.36999739687.261080543-.22852809555.1632579598-.44617342872.261080543-.25572673946.1252525643-.58764273004.2068815442-.33190938094.0869166871-.77808280966.0869166871-.82161055437 0-1.39293079325-.54410507088-.57132023888-.54413811905-.57132023888-1.38749436928 0-.6910372347.29383127947-1.11544183384.29925117935-.42985754719.84881911273-.67471143872.5549944429-.2448869397 1.33307725256-.33190277131.77808280966-.0869166871 1.6704296671-.1305402715v-.1579702526q0-.34822856729-.12515341979-.57675666284-.11970047174-.2283628547-.34823187211-.35910141522-.21765524762-.1252525643-.52234946057-.168545667-.3047041274-.0436235844-.63661350834-.0436235844-.4026423792 0-.89778658622.1087284793-.49514420703.1034407721-1.02293339638.3047041274h-.05439728782v-1.03923275382q.29925117935-.0816289799.86514160389-.1794515631.56587720528-.0978225832 1.11543191939-.0978225832.64205654194 0 1.11543522421.1087284793.47881841104.1034407721.82705358797.35910141522.34278883851.2501746469.52234615575.64751279481.17955070761.39720595523.17955070761.984835466zm-1.01749036278-1.49632199309v-1.69219849668q-.46793895348.026438536-1.10455246182.0816289799-.63117047474.0545294805-1.00116787161.1579702526-.44073039512.1252525643-.71278954019.39175300718-.27205253544.261080543-.27205253544.72365577849 0 .52235937502.31557697533.78899201058.31557697533.261080543.96307985569.261080543.53867195173 0 .98484538045-.2068815442.44617342872-.2121692514.82705358797-.50603357904z"/>
    <path d="m42.24431631053 161.63301137739q0 .7617603185-.21765524762 1.3711685733-.21220229957.6094082548-.57675996766 1.02290695784-.38631988803.42985754719-.84881580791.64751279481-.4624992247.2121692514-1.01749366759.2121692514-.51690642697 0-.90322961982-.1252525643-.38631988803-.1196343754-.76175701368-.3265159196l-.06530318392.2828923352h-.95764012691v-8.46641238328h1.02293339638v3.02526252997q.42984763274-.35364846717.91410907738-.57675666284.48426144464-.2286933364 1.08822666584-.2286933364 1.07734720828 0 1.69763492064.82706350242.62573074596.82706350242.62573074596 2.33425834344zm-1.0555783787.026438536q0-1.08824318993-.35911463449-1.64867405679-.35911793931-.56588381491-1.15896296891-.56588381491-.44617342872 0-.90322961982.1959756481-.4570561911.1903574592-.84881580791.49516073111v3.48231872107q.43529066634.1959756481.74543452252.2719864391.31557697533.076010791.71278954019.076010791.84881580791 0 1.32763752378-.55497791881.48426144464-.56043086686.48426144464-1.75204873255z"/>
    <path d="m44.87238610454 164.71812414323h-1.02293339638v-8.46641238328h1.02293339638z"/>
    <path d="m47.99559680076 157.62288033325h-1.15351993531v-1.06101149785h1.15351993531zm-.06530318392 7.09524380998h-1.02293339638v-6.07775675202h1.02293339638z"/>
    <path d="m55.03642679883 164.71812414323h-1.02293339638v-3.46057302521q0-.41895165109-.04897738794-.78350601436-.04897738794-.37000731132-.17955070761-.57675666284-.13602626772-.2283628547-.39175961681-.33735571936-.25572673946-.1143466682-.66381876189-.1143466682-.41896817517 0-.87602436628.2068815442-.4570561911.2068815442-.87602106146.5277792749v4.53791031904h-1.02293339638v-6.07775675202h1.02293339638v.67471143872q.47881841104-.39720595523.99028510923-.62028110273.51146669819-.2230751475 1.05013864992-.2230751475.98484538045 0 1.50175511224.59308245882.51690642697.59308245882.51690642697 1.70852429266z"/>
    <path d="m62.52343022563 164.71812414323h-1.34940304854l-2.43762640957-2.6607081667-.66381876189.63115395066v2.02955421604h-1.02293339638v-8.46641238328h1.02293339638v5.43024395721l2.95453614135-3.04158832595h1.28954950785l-2.82394960241 2.80764033052z"/>
  </g>
</svg>
